<svg width="24" height="24" viewBox="0 0 24 24" fill="none" xmlns="http://www.w3.org/2000/svg">
<rect opacity="0.01" x="24" y="24" width="24" height="24" transform="rotate(180 24 24)" fill="#2E4FD7"/>
<path d="M3.23999 7.29003L11.76 11.92C11.91 12 12.09 12 12.24 11.92L20.76 7.29003C20.9189 7.21154 21.0153 7.04534 21.0043 6.86841C20.9934 6.69147 20.8774 6.53838 20.71 6.48003L12.19 3.00003C12.0683 2.95002 11.9317 2.95002 11.81 3.00003L3.28999 6.48003C3.1226 6.53838 3.00657 6.69147 2.99565 6.86841C2.98473 7.04534 3.08105 7.21154 3.23999 7.29003Z" fill="#2E4FD7"/>
<path d="M20.71 10.66L18.88 9.88L12.24 13.49C12.09 13.57 11.91 13.57 11.76 13.49L5.11999 9.88L3.28999 10.66C3.13204 10.7429 3.0331 10.9066 3.0331 11.085C3.0331 11.2634 3.13204 11.4271 3.28999 11.51L11.81 16.41C11.9573 16.5001 12.1427 16.5001 12.29 16.41L20.81 11.51C20.9604 11.4099 21.0419 11.2338 21.0208 11.0543C20.9997 10.8749 20.8795 10.7225 20.71 10.66Z" fill="#2E4FD7"/>
<path d="M20.71 15.1L19.15 14.42L12.24 18.18C12.09 18.26 11.91 18.26 11.76 18.18L4.85 14.42L3.29 15.1C3.12754 15.1843 3.02556 15.352 3.02556 15.535C3.02556 15.718 3.12754 15.8858 3.29 15.97L11.81 20.97C11.96 21.05 12.14 21.05 12.29 20.97L20.81 15.97C20.965 15.8685 21.0494 15.6883 21.0283 15.5042C21.0071 15.3201 20.884 15.1638 20.71 15.1Z" fill="#2E4FD7"/>
</svg>
